<mxfile modified="2023-01-25T20:30:28.601Z" host="app.diagrams.net" agent="5.0 (Windows NT 10.0; Win64; x64) AppleWebKit/537.36 (KHTML, like Gecko) Chrome/109.0.0.0 Safari/537.36" etag="xozkZ-3tfQ_ZlI-ycfUh" version="20.8.10" type="github">
  <diagram id="Ht1M8jgEwFfnCIfOTk4-" name="Page-1">
    <mxGraphModel dx="1120" dy="484" grid="1" gridSize="10" guides="1" tooltips="1" connect="1" arrows="1" fold="1" page="1" pageScale="1" pageWidth="827" pageHeight="1169" math="0" shadow="0">
      <root>
        <mxCell id="0" />
        <mxCell id="1" parent="0" />
        <mxCell id="UEzPUAAOIrF-is8g5C7q-2" value="AWS Cloud" style="points=[[0,0],[0.25,0],[0.5,0],[0.75,0],[1,0],[1,0.25],[1,0.5],[1,0.75],[1,1],[0.75,1],[0.5,1],[0.25,1],[0,1],[0,0.75],[0,0.5],[0,0.25]];outlineConnect=0;gradientColor=none;html=1;whiteSpace=wrap;fontSize=12;fontStyle=0;shape=mxgraph.aws4.group;grIcon=mxgraph.aws4.group_aws_cloud_alt;strokeColor=#232F3E;fillColor=none;verticalAlign=top;align=left;spacingLeft=30;fontColor=#232F3E;dashed=0;container=1;pointerEvents=0;collapsible=0;recursiveResize=0;" parent="1" vertex="1">
          <mxGeometry x="80" y="160" width="1060" height="480" as="geometry" />
        </mxCell>
        <mxCell id="IBc7nKOevJKaIkECr1FH-70" value="" style="rounded=1;whiteSpace=wrap;html=1;" vertex="1" parent="UEzPUAAOIrF-is8g5C7q-2">
          <mxGeometry x="920" y="40" width="120" height="420" as="geometry" />
        </mxCell>
        <mxCell id="IBc7nKOevJKaIkECr1FH-71" value="" style="edgeStyle=orthogonalEdgeStyle;rounded=0;orthogonalLoop=1;jettySize=auto;html=1;" edge="1" parent="UEzPUAAOIrF-is8g5C7q-2" source="IBc7nKOevJKaIkECr1FH-67" target="IBc7nKOevJKaIkECr1FH-52">
          <mxGeometry relative="1" as="geometry" />
        </mxCell>
        <mxCell id="IBc7nKOevJKaIkECr1FH-67" value="" style="rounded=1;whiteSpace=wrap;html=1;" vertex="1" parent="UEzPUAAOIrF-is8g5C7q-2">
          <mxGeometry x="640" y="40" width="120" height="420" as="geometry" />
        </mxCell>
        <mxCell id="IBc7nKOevJKaIkECr1FH-59" value="" style="edgeStyle=orthogonalEdgeStyle;rounded=0;orthogonalLoop=1;jettySize=auto;html=1;" edge="1" parent="UEzPUAAOIrF-is8g5C7q-2" source="IBc7nKOevJKaIkECr1FH-37" target="IBc7nKOevJKaIkECr1FH-38">
          <mxGeometry relative="1" as="geometry" />
        </mxCell>
        <mxCell id="IBc7nKOevJKaIkECr1FH-37" value="AWS Certificate Manager" style="sketch=0;outlineConnect=0;fontColor=#232F3E;gradientColor=none;strokeColor=#ffffff;fillColor=#232F3E;dashed=0;verticalLabelPosition=middle;verticalAlign=bottom;align=center;html=1;whiteSpace=wrap;fontSize=10;fontStyle=1;spacing=3;shape=mxgraph.aws4.productIcon;prIcon=mxgraph.aws4.certificate_manager_3;" vertex="1" parent="UEzPUAAOIrF-is8g5C7q-2">
          <mxGeometry x="240" y="59" width="80" height="110" as="geometry" />
        </mxCell>
        <mxCell id="IBc7nKOevJKaIkECr1FH-38" value="Amazon Route 53" style="sketch=0;outlineConnect=0;fontColor=#232F3E;gradientColor=none;strokeColor=#ffffff;fillColor=#232F3E;dashed=0;verticalLabelPosition=middle;verticalAlign=bottom;align=center;html=1;whiteSpace=wrap;fontSize=10;fontStyle=1;spacing=3;shape=mxgraph.aws4.productIcon;prIcon=mxgraph.aws4.route_53;" vertex="1" parent="UEzPUAAOIrF-is8g5C7q-2">
          <mxGeometry x="100" y="59" width="80" height="110" as="geometry" />
        </mxCell>
        <mxCell id="IBc7nKOevJKaIkECr1FH-58" value="" style="edgeStyle=orthogonalEdgeStyle;rounded=0;orthogonalLoop=1;jettySize=auto;html=1;" edge="1" parent="UEzPUAAOIrF-is8g5C7q-2" source="IBc7nKOevJKaIkECr1FH-41" target="IBc7nKOevJKaIkECr1FH-37">
          <mxGeometry relative="1" as="geometry" />
        </mxCell>
        <mxCell id="IBc7nKOevJKaIkECr1FH-61" value="" style="edgeStyle=orthogonalEdgeStyle;rounded=0;orthogonalLoop=1;jettySize=auto;html=1;" edge="1" parent="UEzPUAAOIrF-is8g5C7q-2" source="IBc7nKOevJKaIkECr1FH-41" target="IBc7nKOevJKaIkECr1FH-43">
          <mxGeometry relative="1" as="geometry" />
        </mxCell>
        <mxCell id="IBc7nKOevJKaIkECr1FH-62" value="" style="edgeStyle=orthogonalEdgeStyle;rounded=0;orthogonalLoop=1;jettySize=auto;html=1;" edge="1" parent="UEzPUAAOIrF-is8g5C7q-2" source="IBc7nKOevJKaIkECr1FH-41" target="IBc7nKOevJKaIkECr1FH-45">
          <mxGeometry relative="1" as="geometry" />
        </mxCell>
        <mxCell id="IBc7nKOevJKaIkECr1FH-41" value="Amazon Cloudfront" style="sketch=0;outlineConnect=0;fontColor=#232F3E;gradientColor=none;strokeColor=#ffffff;fillColor=#232F3E;dashed=0;verticalLabelPosition=middle;verticalAlign=bottom;align=center;html=1;whiteSpace=wrap;fontSize=10;fontStyle=1;spacing=3;shape=mxgraph.aws4.productIcon;prIcon=mxgraph.aws4.cloudfront;" vertex="1" parent="UEzPUAAOIrF-is8g5C7q-2">
          <mxGeometry x="240" y="200" width="80" height="110" as="geometry" />
        </mxCell>
        <mxCell id="IBc7nKOevJKaIkECr1FH-43" value="Amazon S3" style="sketch=0;outlineConnect=0;fontColor=#232F3E;gradientColor=none;strokeColor=#ffffff;fillColor=#232F3E;dashed=0;verticalLabelPosition=middle;verticalAlign=bottom;align=center;html=1;whiteSpace=wrap;fontSize=10;fontStyle=1;spacing=3;shape=mxgraph.aws4.productIcon;prIcon=mxgraph.aws4.s3;" vertex="1" parent="UEzPUAAOIrF-is8g5C7q-2">
          <mxGeometry x="240" y="355" width="80" height="100" as="geometry" />
        </mxCell>
        <mxCell id="IBc7nKOevJKaIkECr1FH-63" value="" style="edgeStyle=orthogonalEdgeStyle;rounded=0;orthogonalLoop=1;jettySize=auto;html=1;" edge="1" parent="UEzPUAAOIrF-is8g5C7q-2" source="IBc7nKOevJKaIkECr1FH-45" target="IBc7nKOevJKaIkECr1FH-46">
          <mxGeometry relative="1" as="geometry" />
        </mxCell>
        <mxCell id="IBc7nKOevJKaIkECr1FH-45" value="Amazon API Gateway" style="sketch=0;outlineConnect=0;fontColor=#232F3E;gradientColor=none;strokeColor=#ffffff;fillColor=#232F3E;dashed=0;verticalLabelPosition=middle;verticalAlign=bottom;align=center;html=1;whiteSpace=wrap;fontSize=10;fontStyle=1;spacing=3;shape=mxgraph.aws4.productIcon;prIcon=mxgraph.aws4.api_gateway;" vertex="1" parent="UEzPUAAOIrF-is8g5C7q-2">
          <mxGeometry x="380" y="200" width="80" height="110" as="geometry" />
        </mxCell>
        <mxCell id="IBc7nKOevJKaIkECr1FH-68" value="" style="edgeStyle=orthogonalEdgeStyle;rounded=0;orthogonalLoop=1;jettySize=auto;html=1;entryX=0;entryY=0.5;entryDx=0;entryDy=0;" edge="1" parent="UEzPUAAOIrF-is8g5C7q-2" source="IBc7nKOevJKaIkECr1FH-46" target="IBc7nKOevJKaIkECr1FH-67">
          <mxGeometry relative="1" as="geometry" />
        </mxCell>
        <mxCell id="IBc7nKOevJKaIkECr1FH-46" value="AWS Lambda" style="sketch=0;outlineConnect=0;fontColor=#232F3E;gradientColor=none;strokeColor=#ffffff;fillColor=#232F3E;dashed=0;verticalLabelPosition=middle;verticalAlign=bottom;align=center;html=1;whiteSpace=wrap;fontSize=10;fontStyle=1;spacing=3;shape=mxgraph.aws4.productIcon;prIcon=mxgraph.aws4.lambda;" vertex="1" parent="UEzPUAAOIrF-is8g5C7q-2">
          <mxGeometry x="520" y="200" width="80" height="100" as="geometry" />
        </mxCell>
        <mxCell id="IBc7nKOevJKaIkECr1FH-57" value="" style="edgeStyle=orthogonalEdgeStyle;rounded=0;orthogonalLoop=1;jettySize=auto;html=1;" edge="1" parent="UEzPUAAOIrF-is8g5C7q-2" source="IBc7nKOevJKaIkECr1FH-47" target="IBc7nKOevJKaIkECr1FH-41">
          <mxGeometry relative="1" as="geometry" />
        </mxCell>
        <mxCell id="IBc7nKOevJKaIkECr1FH-47" value="AWS WAF" style="sketch=0;outlineConnect=0;fontColor=#232F3E;gradientColor=none;strokeColor=#ffffff;fillColor=#232F3E;dashed=0;verticalLabelPosition=middle;verticalAlign=bottom;align=center;html=1;whiteSpace=wrap;fontSize=10;fontStyle=1;spacing=3;shape=mxgraph.aws4.productIcon;prIcon=mxgraph.aws4.waf;" vertex="1" parent="UEzPUAAOIrF-is8g5C7q-2">
          <mxGeometry x="100" y="200" width="80" height="100" as="geometry" />
        </mxCell>
        <mxCell id="IBc7nKOevJKaIkECr1FH-56" value="" style="edgeStyle=orthogonalEdgeStyle;rounded=0;orthogonalLoop=1;jettySize=auto;html=1;" edge="1" parent="UEzPUAAOIrF-is8g5C7q-2" source="IBc7nKOevJKaIkECr1FH-48" target="IBc7nKOevJKaIkECr1FH-47">
          <mxGeometry relative="1" as="geometry" />
        </mxCell>
        <mxCell id="IBc7nKOevJKaIkECr1FH-48" value="AWS Shield" style="sketch=0;outlineConnect=0;fontColor=#232F3E;gradientColor=none;strokeColor=#ffffff;fillColor=#232F3E;dashed=0;verticalLabelPosition=middle;verticalAlign=bottom;align=center;html=1;whiteSpace=wrap;fontSize=10;fontStyle=1;spacing=3;shape=mxgraph.aws4.productIcon;prIcon=mxgraph.aws4.shield;" vertex="1" parent="UEzPUAAOIrF-is8g5C7q-2">
          <mxGeometry x="-40" y="200" width="80" height="100" as="geometry" />
        </mxCell>
        <mxCell id="IBc7nKOevJKaIkECr1FH-49" value="Amazon Kinesis Data Streams" style="sketch=0;outlineConnect=0;fontColor=#232F3E;gradientColor=none;strokeColor=#ffffff;fillColor=#232F3E;dashed=0;verticalLabelPosition=middle;verticalAlign=bottom;align=center;html=1;whiteSpace=wrap;fontSize=10;fontStyle=1;spacing=3;shape=mxgraph.aws4.productIcon;prIcon=mxgraph.aws4.kinesis_data_streams;" vertex="1" parent="UEzPUAAOIrF-is8g5C7q-2">
          <mxGeometry x="660" y="200" width="80" height="120" as="geometry" />
        </mxCell>
        <mxCell id="IBc7nKOevJKaIkECr1FH-50" value="Amazon SQS" style="sketch=0;outlineConnect=0;fontColor=#232F3E;gradientColor=none;strokeColor=#ffffff;fillColor=#232F3E;dashed=0;verticalLabelPosition=middle;verticalAlign=bottom;align=center;html=1;whiteSpace=wrap;fontSize=10;fontStyle=1;spacing=3;shape=mxgraph.aws4.productIcon;prIcon=mxgraph.aws4.sqs;" vertex="1" parent="UEzPUAAOIrF-is8g5C7q-2">
          <mxGeometry x="660" y="69" width="80" height="100" as="geometry" />
        </mxCell>
        <mxCell id="IBc7nKOevJKaIkECr1FH-51" value="Amazon DynamoDB" style="sketch=0;outlineConnect=0;fontColor=#232F3E;gradientColor=none;strokeColor=#ffffff;fillColor=#232F3E;dashed=0;verticalLabelPosition=middle;verticalAlign=bottom;align=center;html=1;whiteSpace=wrap;fontSize=10;fontStyle=1;spacing=3;shape=mxgraph.aws4.productIcon;prIcon=mxgraph.aws4.dynamodb;" vertex="1" parent="UEzPUAAOIrF-is8g5C7q-2">
          <mxGeometry x="660" y="350" width="80" height="110" as="geometry" />
        </mxCell>
        <mxCell id="IBc7nKOevJKaIkECr1FH-74" value="" style="edgeStyle=orthogonalEdgeStyle;rounded=0;orthogonalLoop=1;jettySize=auto;html=1;" edge="1" parent="UEzPUAAOIrF-is8g5C7q-2" source="IBc7nKOevJKaIkECr1FH-52" target="IBc7nKOevJKaIkECr1FH-70">
          <mxGeometry relative="1" as="geometry" />
        </mxCell>
        <mxCell id="IBc7nKOevJKaIkECr1FH-52" value="AWS Lambda" style="sketch=0;outlineConnect=0;fontColor=#232F3E;gradientColor=none;strokeColor=#ffffff;fillColor=#232F3E;dashed=0;verticalLabelPosition=middle;verticalAlign=bottom;align=center;html=1;whiteSpace=wrap;fontSize=10;fontStyle=1;spacing=3;shape=mxgraph.aws4.productIcon;prIcon=mxgraph.aws4.lambda;" vertex="1" parent="UEzPUAAOIrF-is8g5C7q-2">
          <mxGeometry x="800" y="200" width="80" height="100" as="geometry" />
        </mxCell>
        <mxCell id="IBc7nKOevJKaIkECr1FH-53" value="Amazon DynamoDB" style="sketch=0;outlineConnect=0;fontColor=#232F3E;gradientColor=none;strokeColor=#ffffff;fillColor=#232F3E;dashed=0;verticalLabelPosition=middle;verticalAlign=bottom;align=center;html=1;whiteSpace=wrap;fontSize=10;fontStyle=1;spacing=3;shape=mxgraph.aws4.productIcon;prIcon=mxgraph.aws4.dynamodb;" vertex="1" parent="UEzPUAAOIrF-is8g5C7q-2">
          <mxGeometry x="940" y="120" width="80" height="110" as="geometry" />
        </mxCell>
        <mxCell id="IBc7nKOevJKaIkECr1FH-54" value="Amazon S3" style="sketch=0;outlineConnect=0;fontColor=#232F3E;gradientColor=none;strokeColor=#ffffff;fillColor=#232F3E;dashed=0;verticalLabelPosition=middle;verticalAlign=bottom;align=center;html=1;whiteSpace=wrap;fontSize=10;fontStyle=1;spacing=3;shape=mxgraph.aws4.productIcon;prIcon=mxgraph.aws4.s3;" vertex="1" parent="UEzPUAAOIrF-is8g5C7q-2">
          <mxGeometry x="940" y="280" width="80" height="100" as="geometry" />
        </mxCell>
      </root>
    </mxGraphModel>
  </diagram>
</mxfile>
